<svg id="Layer_1" data-name="Layer 1" xmlns="http://www.w3.org/2000/svg" viewBox="0 0 342.24 77.42"><defs><style>.cls-1{fill:#f4f4f4;}</style></defs><path class="cls-1" d="M14.35,45.12c-5.89.14-11.5-3-13.56-8.4l7-3a6.93,6.93,0,0,0,6.54,4.5c2.11,0,4.49-.63,4.68-2.64-.24-2.35-2.15-2.56-4.68-3.3l-4.14-.9c-4-.86-8.39-3.82-8.28-8.46.25-11.65,20.76-12,24.36-2.22l-6.78,2.76c-1.44-3.15-5.82-4.1-8.64-2.61-1.57.78-1.72,2.56-.21,3.39a12.19,12.19,0,0,0,2.85,1.08L18,26.4C32.66,29.82,27.63,45.49,14.35,45.12ZM52,40.32h-.48C48.33,46.2,38,46.7,34.18,41.7q-2.73-3.42-2.73-9.12V14.76h7.86V31.62a6.77,6.77,0,0,0,1.41,4.71c3.57,3.37,9.31,1,10.38-3.78.86-2.19.3-15.27.45-17.79h7.86v29.4H52ZM66.13,1.2H74V13.26l-.48,5.34H74c3.14-5.87,13.65-6.33,17.37-1.44q2.73,3.36,2.73,9.18V44.16H86.23V27.3a6.71,6.71,0,0,0-1.44-4.65c-3.54-3.53-9.35-.93-10.35,3.78-.86,2.19-.3,15.21-.45,17.73H66.13ZM105,10.8c-6.66-.16-6.66-9.92,0-10.08C111.7.89,111.69,10.63,105,10.8Zm-3.9,33.36V14.76h7.86v29.4Zm18-22.68h-5.16V14.76h5.16v-9h7.86v9h7.2v6.72h-7.2V33.23a4.79,4.79,0,0,0,1,3.46c1.14,1.41,3.8,1.2,5.16.21l2.22,6.9c-4.09,1.87-10.11,2.09-13.44-1.31q-2.82-2.76-2.82-7.84Z" transform="translate(-0.79 -0.72)"/><path class="cls-1" d="M149.05,61.1h-.48c-3.6,5-11.57,5.35-16.14,1.26-4.26-3.6-4.26-11.11.25-14.52,4.29-3.55,11.62-3.21,16.37-1.32.58-7.4-9.7-8.11-13.38-2.88l-5.7-3.9q4.68-5.88,12.79-5.88,6.84,0,10.43,3.21t3.61,9.51V64.22h-7.75Zm0-8.82c-2.92-1.48-7.78-2.26-10.41-.21a3.67,3.67,0,0,0-.06,5.91C142.74,61,149.26,57.36,149.05,52.28Zm27.24,25.86c-6.18.11-12.36-3.17-14.52-8.88l7.5-3c1.62,5.4,9.51,6.5,12.91,2.5,1.94-2,2.3-5.55,2.16-8.68h-.49c-3,4.27-9.32,5.14-14.07,3.07a15.11,15.11,0,0,1-8.73-14.08c-.05-6,3.27-11.79,8.73-14.14,4.75-2.08,11.07-1.2,14.07,3.07h.49V34.82h7.5v27.3C192.09,71.28,185.54,78.38,176.29,78.14Zm.3-21c5.93.13,9.33-6.37,7.08-11.55-2.41-6.16-11.7-6.14-14.09,0C167.32,50.68,170.76,57.3,176.59,57.14Zm39.79,4h-.49c-3.6,5-11.57,5.35-16.14,1.26-4.26-3.6-4.26-11.11.24-14.52,4.3-3.55,11.63-3.21,16.39-1.32.57-7.4-9.71-8.11-13.39-2.88l-5.69-3.9q4.66-5.88,12.77-5.88,6.84,0,10.44,3.21t3.6,9.51V64.22h-7.73Zm0-8.82c-2.93-1.48-7.79-2.26-10.42-.21A3.67,3.67,0,0,0,205.9,58C210.06,61,216.57,57.36,216.38,52.28Zm14-17.46h7.38V38.9h.48c2.25-4.38,8.78-6.57,13-3.84l-2.1,7a7.25,7.25,0,0,0-10.35,4.31c-1,2.14-.34,15.34-.51,17.83h-7.86Zm21.9,0h8.82l4.86,18.42h.42l5.82-18.42h8.1l5.88,18.42h.42l4.8-18.42h8.7l-9.42,29.4h-8.46l-5.88-18.54h-.42L270,64.22h-8.34ZM321.19,61.1h-.48c-3.61,5-11.57,5.35-16.14,1.26-4.27-3.6-4.26-11.11.24-14.52,4.3-3.55,11.63-3.21,16.38-1.32.57-7.4-9.71-8.11-13.38-2.88l-5.7-3.9q4.68-5.88,12.78-5.88,6.84,0,10.44,3.21t3.6,9.51V64.22h-7.74Zm0-8.82c-2.92-1.48-7.79-2.26-10.41-.21a3.66,3.66,0,0,0-.06,5.91C314.88,61,321.39,57.36,321.19,52.28Zm14,11.94v-43H343v43Z" transform="translate(-0.79 -0.72)"/></svg>